<svg xmlns="http://www.w3.org/2000/svg" viewBox="0 0 64 64">
  <rect width="64" height="64" rx="16" fill="#1f6f5f"/>
  <path d="M32 12a11 11 0 0 1 10.7 8.7A11 11 0 0 1 53 31.2a11 11 0 0 1-3.3 7.9A11 11 0 0 1 44.3 57a11 11 0 0 1-16.7 0A11 11 0 0 1 10 49a11 11 0 0 1 5.3-18A11 11 0 0 1 32 12Z" fill="none" stroke="#fff" stroke-width="3.5" stroke-linejoin="round"/>
  <path d="m20.5 25 11.7-6.7L44 25v13.5l-11.8 6.8-11.7-6.8V25Zm11.7-6.7v13.5M44 25l-11.8 6.8M20.5 25l11.7 6.8v13.5" fill="none" stroke="#fff" stroke-width="3" stroke-linejoin="round"/>
</svg>
